<svg width="1395" height="816" viewBox="0 0 1395 816" fill="none" xmlns="http://www.w3.org/2000/svg">
<path d="M1083.69 563.241C1086.59 560.964 1089.52 558.729 1092.38 556.398C1110.18 541.869 1130.02 531.052 1151.79 523.816C1162.78 520.159 1173.95 517.016 1185 513.528C1190.88 511.673 1196.76 509.755 1202.51 507.556C1209.44 504.909 1216.17 501.814 1221.71 496.655C1222.24 496.158 1222.88 495.744 1223.53 495.407C1224.72 494.786 1226.06 494.746 1226.94 495.75C1227.7 496.603 1228.56 497.889 1228.43 498.867C1228.19 500.777 1227.44 502.667 1226.66 504.463C1222.6 513.881 1216.58 521.975 1209.63 529.428C1202.2 537.398 1193.86 544.353 1185.39 551.186C1174.96 559.611 1165.64 569.08 1158.37 580.452C1154.35 586.749 1151.2 593.434 1149.61 600.738C1148.92 603.839 1148.52 607.09 1148.6 610.258C1148.73 616.086 1151.65 619.332 1157.34 620.511C1164.61 622.02 1171.19 620.206 1176.61 615.347C1180.44 611.913 1184.02 608.029 1187.01 603.844C1191.31 597.813 1195.25 591.539 1198.83 585.054C1203.71 576.194 1208.09 567.056 1212.7 558.047C1220.36 543.069 1228.75 528.54 1239.54 515.547C1260.17 490.717 1284.88 470.943 1313.54 456.108C1325.21 450.061 1337.68 446.132 1350.21 442.329C1357.52 440.109 1364.88 438.019 1372.13 435.58C1377.79 433.677 1383.55 432.695 1389.44 431.931C1396.04 431.078 1402.57 429.707 1409.11 428.529C1409.83 428.401 1410.53 428.105 1411.21 427.8C1412.39 427.273 1413.55 426.409 1413.08 425.051C1412.73 424.018 1411.77 422.893 1410.79 422.463C1409.78 422.024 1408.4 422.208 1407.23 422.416C1401.39 423.434 1395.58 424.518 1389.78 425.669C1386.83 426.258 1384.62 425.526 1382.56 423.209C1372.46 411.846 1370.04 398.967 1374.54 384.6C1376.95 376.919 1381.3 370.355 1386.28 364.177C1398.93 348.498 1414.27 336.415 1433.18 329.098C1441.01 326.073 1448.79 322.965 1456.53 319.722C1461.77 317.532 1466.95 315.203 1472.01 312.642C1480.82 308.182 1486.29 300.712 1489.96 291.769C1491.98 286.816 1492.1 281.714 1491.12 276.482C1490.06 270.909 1489.33 265.283 1488.31 259.705C1486.93 252.152 1488.37 245 1491.04 237.97C1494.36 229.29 1499.43 221.769 1505.97 215.225C1518.09 203.088 1531.56 192.79 1546.91 184.995C1554.83 180.972 1562.7 176.839 1570.48 172.552C1584.38 164.895 1597.11 155.533 1609.17 145.285C1620.57 135.597 1629.68 123.944 1637.24 111.077C1638.73 108.538 1639.6 105.641 1641.02 103.057C1641.83 101.605 1643.03 100.285 1644.31 99.2222C1645.64 98.1117 1648.04 99.103 1648.5 100.784C1648.75 101.73 1648.89 102.715 1649.01 103.686C1651.03 119.492 1650.83 135.247 1647.09 150.779C1642.16 171.206 1631.64 188.612 1617.31 203.757C1611.37 210.031 1605.06 215.962 1598.9 222.023C1592.54 228.275 1586.73 234.99 1581.87 242.48C1580.26 244.957 1578.66 247.489 1577.46 250.174C1573.04 260.1 1573.12 269.678 1579.55 278.961C1584.6 286.266 1589.37 293.776 1593.97 301.376C1598.59 309.005 1602.1 317.152 1604.26 325.863C1607.69 339.648 1607.34 353.235 1602.52 366.656C1593.83 390.821 1578.39 409.492 1556.54 422.836C1553.63 424.612 1550.34 425.911 1547.05 426.864C1529.75 431.886 1512.32 436.319 1494.46 438.927C1491.8 439.315 1489.15 440.015 1486.6 440.857C1485.93 441.077 1485.18 442.426 1485.27 443.163C1485.37 443.903 1486.4 445.057 1487.1 445.111C1490.01 445.349 1493.04 445.686 1495.89 445.183C1505.35 443.5 1514.79 441.621 1524.17 439.551C1530.67 438.125 1537.08 436.312 1543.52 434.601C1545.93 433.958 1547.98 434.405 1549.48 436.381C1551.41 438.918 1553.62 441.372 1554.96 444.213C1561 457.025 1562.17 470.204 1557.46 483.781C1554.1 493.5 1549.11 502.176 1542.04 509.654C1535.23 516.858 1527.84 523.413 1519.74 529.101C1502.96 540.872 1486.05 552.449 1469.26 564.202C1461.58 569.58 1453.95 575.037 1446.49 580.725C1439.6 585.974 1433.35 591.96 1427.64 598.48C1423.05 603.707 1419.21 609.424 1416.25 615.734C1413.88 620.782 1413.31 626.073 1413.4 631.599C1413.49 637.849 1420.32 644.34 1427.75 643.479C1430.66 643.144 1433.6 642.362 1436.32 641.266C1449 636.168 1460.82 629.514 1471.03 620.354C1474.86 616.911 1478.15 612.841 1481.62 609.014C1482.78 607.736 1483.7 606.237 1484.87 604.977C1487.31 602.358 1490.5 602.922 1491.94 606.31C1492.71 608.129 1493.24 610.037 1493.53 611.988C1495.71 626.751 1492.68 640.462 1484.91 653.144C1479.45 662.08 1472.6 669.84 1464.24 676.167C1459.52 679.74 1454.59 683.026 1449.71 686.377C1443.59 690.567 1437.37 694.581 1431.34 698.872C1426.08 702.598 1421.61 707.343 1418.22 712.823C1415.18 717.717 1413.25 722.952 1412.86 728.794C1412.36 736.447 1410.76 743.924 1408.64 751.304C1407.39 755.665 1405.38 759.625 1402.38 762.946C1398.91 766.787 1395.15 770.355 1391.46 774.004C1389.06 776.386 1386.11 777.299 1382.73 777.348C1369.64 777.529 1356.56 777.95 1343.48 778.056C1318.04 778.257 1292.6 778.268 1267.17 778.423C1231.37 778.637 1195.56 778.896 1159.76 779.152C1124.45 779.403 1089.14 779.667 1053.84 779.94C1019.26 780.206 984.696 780.498 950.125 780.752C918.025 780.989 885.925 781.181 853.825 781.419C815.304 781.705 776.786 782.024 738.265 782.315C702.464 782.582 666.658 782.826 630.853 783.089C595.789 783.351 560.729 783.634 525.664 783.891C490.356 784.147 455.043 784.374 419.734 784.629C383.929 784.889 348.128 785.161 312.322 785.433C277.755 785.7 243.183 785.987 208.616 786.241C176.268 786.477 143.923 786.658 111.58 786.89C72.3162 787.173 33.0586 787.456 -6.20386 787.79C-34.349 788.03 -62.4979 788.362 -90.644 788.611C-93.607 788.633 -96.569 788.488 -99.5158 788.177C-100.979 788.018 -102.393 787.559 -103.671 786.829C-106.937 784.926 -107.23 780.434 -104.306 778.064C-103.36 777.298 -102.227 776.759 -101.159 776.16C-82.2478 765.523 -67.0956 750.973 -55.769 732.466C-49.0565 721.498 -43.6093 709.857 -38.1232 698.258C-36.1276 694.043 -34.8498 689.479 -33.357 685.031C-18.6349 641.189 2.48485 600.589 28.5171 562.447C41.8907 542.849 55.7971 523.685 71.3426 505.724C86.0918 488.688 102.386 473.262 119.211 458.328C148.509 432.321 181.924 412.986 217.495 397.089C221.548 395.278 225.687 393.656 229.809 392.006C245.152 385.863 260.593 379.951 275.831 373.559C293.363 366.211 310.43 357.854 327.31 349.108C336.192 344.508 343.593 338.021 350.917 331.369C364.567 318.976 375.495 304.398 385.406 288.964C394.47 274.832 403.603 260.743 412.804 246.699C421.785 233.001 432.593 220.815 444.429 209.541C447.638 206.487 451.094 203.644 454.678 201.038C466.484 192.459 478.917 184.903 492.064 178.533C507.186 171.203 522.798 165.088 538.68 159.635C546.845 156.831 554.97 153.909 563.168 151.21C574.718 147.411 585.6 142.204 596.014 135.996C606.148 129.954 614.698 122.307 620.378 111.743C623.067 106.743 626.063 101.912 628.773 96.9237C639.271 77.5804 653.233 61.0355 669.781 46.6855C686.287 32.3732 705.512 23.0523 726.443 17.1423C733.8 15.0609 741.282 13.4466 748.842 12.307C755.656 11.2828 762.393 9.63641 769.075 7.92708C772.449 7.06563 774.833 8.16256 777.029 10.3981C778.158 11.5512 777.851 14.2625 776.392 14.965C774.86 15.7024 773.211 16.3138 771.549 16.6307C748.915 20.9409 730.512 32.9052 713.99 48.3076C706.83 54.9841 701.644 63.054 697.495 71.8196C692.514 82.3363 688.576 93.1727 686.437 104.697C684.592 114.641 681.922 124.426 678.343 133.916C673.498 146.761 666.073 158.067 657.593 168.772C648.247 180.574 636.864 189.912 623.63 196.956C614.921 201.589 606.003 205.827 597.173 210.228C588.562 214.523 579.901 218.716 571.341 223.112C564.92 226.407 559.313 230.867 554.293 236.037C552.747 237.626 551.347 239.36 549.928 241.069C543.818 248.451 541.961 256.798 544.458 266.054C546.462 273.462 547.134 281.167 546.444 288.81C545.267 302.109 539.834 312.979 528.244 320.245C525.529 321.948 522.737 323.533 519.979 325.169C515.52 327.803 510.967 330.297 506.622 333.112C503.695 335.01 500.691 336.483 497.356 337.58C486.949 341.004 477.376 346.082 469.066 353.297C466.661 355.384 464.593 357.878 462.49 360.288C461.877 360.987 461.371 362.044 461.366 362.942C461.36 363.785 461.924 364.783 462.535 365.422C462.943 365.849 464.108 366.142 464.54 365.869C467.024 364.294 469.576 362.741 471.754 360.79C476.763 356.306 482.31 352.667 488.222 349.54C489.09 349.083 490.018 348.739 490.946 348.407C491.979 348.036 492.226 348.864 492.268 349.541C493.381 367.451 486.111 381.761 472.875 393.186C467.287 398.008 461.072 402.123 455.012 406.372C446.926 412.039 438.623 417.401 431.252 424.032C423.852 430.688 417.524 438.224 412.413 446.762C410.244 450.385 408.465 454.165 408.437 458.546C408.412 462.375 410.427 465.261 414.182 466.044C416.064 466.438 418.111 466.501 420.016 466.237C424.942 465.561 429.547 463.734 434.048 461.687C459.207 450.246 479.339 432.931 494.461 409.802C497.431 405.253 500.362 400.673 503.109 395.992C515.99 374.034 532.446 355.161 551.778 338.661C562.506 329.505 573.481 320.739 585.604 313.489C586.866 312.733 588.092 311.725 589.467 311.415C590.479 311.184 592.07 311.563 592.733 312.286C593.404 313.022 593.517 314.542 593.375 315.659C593.268 316.532 592.496 317.397 591.849 318.106C590.851 319.197 589.752 320.204 588.618 321.156C579.032 329.195 571.784 339.165 565.131 349.611C560.183 357.38 556.7 365.82 554.519 374.747C552.298 383.851 550.367 393.027 548.336 402.181C546.568 410.157 544.171 417.917 540.791 425.367C537.076 433.552 531.971 440.759 525.837 447.295C519.482 454.064 511.943 459.088 503.509 462.858C495.625 466.38 487.723 469.869 479.895 473.512C477.222 474.756 474.665 476.297 472.219 477.943C471.051 478.731 470.063 479.977 469.383 481.229C468.996 481.941 469.075 483.309 469.535 483.962C469.986 484.599 471.335 485.166 472.04 484.949C474.615 484.149 477.116 483.088 479.58 481.986C483.856 480.072 488.08 478.041 492.338 476.087C492.745 475.902 493.371 475.716 493.663 475.899C493.955 476.082 494.167 476.789 494.061 477.164C490.346 490.205 486.56 503.223 482.841 516.264C478.476 531.582 469.465 543.617 456.908 553.167C450.002 558.417 442.704 563.117 434.683 566.379C428.777 568.781 422.573 570.596 416.356 572.079C397.358 576.605 378.182 579.936 358.53 579.542C356.368 579.501 354.175 580.024 352.039 580.497C351.523 580.61 350.903 581.53 350.848 582.124C350.798 582.714 351.255 583.561 351.76 583.936C352.517 584.499 353.486 584.979 354.409 585.081C358.32 585.517 362.207 585.924 366.193 585.812C380.559 585.401 394.682 583.231 408.708 580.355C411.588 579.763 413.506 580.564 415.257 582.509C417.985 585.529 419.642 589.015 419.89 593.154C420.226 598.695 419.376 603.954 416.842 608.953C414.141 614.296 410.815 619.213 406.396 623.225C400.552 628.533 394.465 633.574 388.46 638.703C384.515 642.066 380.448 645.292 376.576 648.74C371.384 653.36 366.785 658.541 363.372 664.625C360.242 670.211 358.917 676.111 361.305 682.405C362.949 686.735 365.537 690.333 369.894 692.096C373.058 693.376 376.438 694.705 379.783 694.88C402.524 696.078 422.664 689.492 439.471 673.817C445.155 668.515 449.208 661.949 451.789 654.662C454.585 646.762 456.878 638.686 459.349 630.675C461.385 624.074 463.128 617.375 465.418 610.865C471.14 594.602 480.048 580.188 491.241 567.106C511.7 543.201 537.089 526.045 565.246 512.625C580.633 507.248 593.786 498.06 606.372 488.06C611.954 483.626 616.868 478.351 622.067 473.439C623.142 472.423 624.071 471.257 625.188 470.296C626.199 469.425 628.247 469.493 629.386 470.267C630.512 471.033 630.854 472.184 630.856 473.469C630.856 473.957 630.843 474.472 630.7 474.936C627.147 486.738 624.251 498.767 618.013 509.605C611.833 520.337 604.976 530.552 596.737 539.839C592.481 544.637 588.424 549.624 584.473 554.677C576.17 565.308 572.108 577.536 570.821 590.886C570.208 597.257 569.083 603.592 567.888 609.887C565.234 623.851 558.656 635.838 549.007 646.185C547.154 648.171 545.19 650.049 543.323 652.023C543.023 652.341 542.955 652.884 542.782 653.324C543.217 653.422 543.716 653.7 544.081 653.583C546.421 652.815 548.828 652.16 551.031 651.097C562.423 645.597 572.998 638.835 582.511 630.447C601.833 613.417 615.537 592.615 624.346 568.488C631.37 549.244 638.29 529.963 645.463 510.777C652.12 492.973 659.005 475.251 667.995 458.443C674.762 445.789 682.438 433.714 690.957 422.175C704.02 404.479 720.031 389.944 738.554 378.164C746.05 373.398 753.574 368.624 761.39 364.429C767.025 361.405 770.54 357.021 772.468 351.205C773.627 347.704 774.474 344.083 775.215 340.463C780.925 312.712 793.497 288.424 812.337 267.4C823.639 254.786 836.753 244.384 852.106 236.999C858.998 233.683 865.92 230.426 872.829 227.139C877.063 225.125 881.313 223.141 885.524 221.085C893.825 217.037 901.061 211.554 907.502 204.947C912.38 199.941 916.425 194.407 919.182 187.961C920.831 184.102 922.615 180.301 924.21 176.421C930.896 160.137 941.166 146.415 953.9 134.4C976.074 113.484 1001.91 99.134 1031.24 91.0166C1038.89 88.8993 1046.69 87.8121 1054.62 87.5466C1058.06 87.4303 1061.49 86.8925 1064.94 86.6551C1068.38 86.4158 1071.83 86.3712 1075.28 86.1319C1078.99 85.8799 1081.23 88.0728 1083.2 90.7279C1084.19 92.0545 1083.79 94.4295 1082.26 95.3093C1080.35 96.4034 1078.32 97.2919 1076.26 98.1001C1070.75 100.268 1065.09 102.087 1059.71 104.51C1039.69 113.518 1021.99 125.927 1006.25 141.214C995.226 151.922 987.263 164.493 982.477 179.098C978.941 189.885 975.599 200.741 971.724 211.404C966.121 226.824 957.981 240.946 948.242 254.096C937.619 268.44 923.878 279.305 908.253 287.628C899.323 292.384 893.937 299.34 891.193 308.836C888.362 318.631 887.061 328.62 886.941 338.781C886.873 344.465 886.915 350.147 886.838 355.825C886.793 359.036 886.642 362.242 886.474 365.449C886.171 371.223 884.492 376.552 881.58 381.571C874.091 394.483 865.035 406.158 854.083 416.288C845.74 424.009 836.921 431.186 827.429 437.463C823.319 440.179 818.916 442.448 814.709 445.025C813.268 445.909 811.942 447.032 810.752 448.234C810.388 448.599 810.422 449.698 810.692 450.26C810.962 450.823 811.738 451.457 812.319 451.486C813.511 451.539 814.841 451.478 815.894 450.99C819.686 449.223 823.539 447.507 827.088 445.318C838.473 438.293 848.76 429.806 858.677 420.863C859.777 419.871 860.85 418.847 861.89 417.791C863.21 416.454 864.812 416.104 866.623 416.199C871.759 416.47 876.238 418.303 879.989 421.816C884.215 425.77 887.226 430.511 889.102 436.001C892.221 445.104 892.469 454.402 890.91 463.783C888.794 476.559 884.106 488.483 878.65 500.149C870.333 517.921 859.422 534.063 847.554 549.588C842.457 556.255 837.123 562.742 831.892 569.314C827.869 574.368 823.111 578.677 818.094 582.698C808.069 590.736 797.711 598.309 786.575 604.768C783.8 606.379 781.132 608.17 778.456 609.939C777.647 610.472 776.835 611.119 776.298 611.902C775.948 612.411 775.805 613.41 776.083 613.909C776.378 614.446 777.296 614.994 777.89 614.944C779.337 614.818 780.859 614.574 782.164 613.97C785.517 612.418 788.94 610.907 792.028 608.907C799.686 603.938 807.543 599.166 814.602 593.426C819.906 589.107 825.341 588.866 831.238 590.14C839.312 591.883 843.738 598.051 843.296 606.395C843.043 611.157 841.412 615.552 839.386 619.813C834.889 629.256 828.779 637.628 822.004 645.51C817.014 651.313 811.795 656.919 806.546 662.492C801.975 667.344 797.131 671.941 792.592 676.826C790.564 679.007 787.446 680.464 787.172 684.001C790.297 684.506 792.843 682.779 795.56 681.785C803.034 679.053 809.917 675.148 816.279 670.442C825.208 663.837 833.929 656.943 842.751 650.194C852.767 642.536 863.055 635.283 874.543 629.942C878.118 628.279 881.765 626.746 885.476 625.431C888.017 624.53 890.698 623.801 893.37 623.552C898.276 623.095 902.603 624.27 905.599 628.765C907.846 632.138 908.005 632.027 910.374 628.638C915.394 621.441 918.678 613.499 920.268 604.893C921.882 596.161 923.251 587.384 924.869 578.652C928.049 561.507 934.135 545.396 942.578 530.181C945.451 525.003 948.615 519.981 951.766 514.964C965.191 493.583 983.204 476.98 1005.15 464.71C1017.85 457.606 1030.88 451.082 1043.8 444.385C1058.7 436.666 1073.75 429.232 1088.55 421.32C1104.48 412.8 1119.36 402.633 1133.17 390.943C1135.6 388.876 1137.84 386.566 1140.14 384.353C1140.31 384.2 1140.48 383.865 1140.41 383.723C1140.33 383.547 1140.02 383.394 1139.78 383.383C1139.31 383.353 1138.8 383.349 1138.33 383.462C1131.99 384.996 1125.58 384.551 1119.17 384.282C1118.43 384.25 1117.69 384.18 1116.96 384.052C1103.38 381.638 1097.36 371.687 1098.46 360.486C1098.94 355.524 1100.37 350.833 1102.43 346.296C1106.79 336.652 1113.63 328.914 1121.17 321.713C1129.24 314.012 1138.15 307.368 1147.52 301.375C1157.71 294.86 1168.1 288.635 1178.21 282.011C1186.26 276.745 1194.25 271.326 1201.9 265.497C1210.96 258.592 1219.14 250.708 1225.6 241.199C1227.99 237.696 1229.87 233.991 1230.92 229.868C1237.28 205.136 1250.15 184.017 1267.04 165.191C1279.64 151.146 1294.1 139.244 1309.64 128.579C1325.13 117.941 1341.56 108.877 1357.98 99.7939C1372.45 91.7918 1387.02 83.9361 1401.16 75.3846C1417.08 65.7527 1431.33 53.9366 1443.53 39.7852C1449.37 33.0283 1454.46 25.7539 1458.69 17.8982C1460.41 14.6908 1462.18 11.464 1461.13 7.41545C1460.52 5.0908 1462.26 3.22739 1463.87 1.65566C1465.21 0.343625 1468.22 1.0733 1468.91 2.85336C1469.25 3.75648 1469.52 4.74486 1469.56 5.70902C1469.74 10.151 1469.86 14.5948 1469.96 19.0377C1470.16 28.2859 1468.23 37.1679 1465.44 45.9277C1460.09 62.7565 1452.13 78.3091 1442.68 93.1581C1434.04 106.741 1424.07 119.294 1413.33 131.26C1397.97 148.371 1381.33 164.205 1364.66 180.013C1358.39 185.957 1352.32 192.102 1346.29 198.299C1336.07 208.829 1329.86 221.629 1325.85 235.584C1324.21 241.271 1322.79 247.024 1321.38 252.776C1316.01 274.837 1305.17 293.977 1290.57 311.189C1281.26 322.165 1270.99 332.062 1259.37 340.59C1255.75 343.255 1251.91 345.291 1247.52 346.413C1235.82 349.407 1224.2 352.782 1212.11 353.957C1210.69 354.096 1209.26 354.718 1207.95 355.364C1207.44 355.617 1206.98 356.551 1207 357.154C1207.03 357.768 1207.55 358.662 1208.08 358.902C1209.16 359.385 1210.4 359.654 1211.61 359.754C1217.59 360.257 1223.39 358.866 1229.18 357.653C1233.76 356.694 1238.28 355.436 1242.81 354.249C1244.86 353.714 1246.64 354.029 1248.4 355.261C1258.51 362.327 1264.34 371.96 1265.58 384.225C1266.93 397.546 1264.69 410.285 1258.92 422.404C1253.01 434.815 1244.76 445.534 1235.25 455.341C1226.98 463.879 1217.83 471.413 1208.23 478.399C1193.82 488.882 1178.47 497.826 1162.66 505.991C1152.13 511.426 1141.56 516.75 1131.11 522.353C1117.57 529.631 1104.91 538.197 1094.21 549.382C1090.99 552.766 1088.04 556.441 1085.12 560.096C1084.4 560.987 1084.25 562.327 1083.85 563.463C1083.65 563.6 1083.47 563.736 1083.28 563.872C1083.43 563.635 1083.57 563.44 1083.69 563.241Z" fill="#CEFD3B"/>
<path d="M1040.09 268.465C1037.38 268.449 1034.66 268.403 1031.95 268.421C1030.23 268.43 1028.45 268.314 1026.8 268.678C1025.74 268.909 1024.66 269.752 1023.95 270.621C1023.29 271.427 1024.82 273.151 1026.59 273.565C1033.38 275.15 1040.23 275.507 1047.17 274.857C1056.51 273.981 1065.78 272.693 1074.93 270.61C1076.53 270.243 1077.84 270.401 1079.07 271.385C1085.68 276.682 1090.65 283.078 1090.73 291.914C1090.77 296.034 1089.96 300.265 1088.9 304.275C1086.93 311.751 1083.02 318.359 1078.67 324.695C1071.46 335.2 1062.33 343.786 1052.14 351.333C1041.61 359.139 1030.4 365.843 1018.87 372.074C1004.77 379.702 990.673 387.347 976.645 395.122C972.334 397.512 968.283 400.359 964.106 402.987C946.487 414.077 934.857 429.917 927.501 449.146C926.708 451.216 926.018 453.333 925.142 455.366C924.538 456.765 922.919 457.481 921.463 457.249C920.013 457.016 918.706 455.813 918.685 454.23C918.626 450.039 918.33 445.787 918.874 441.659C920.068 432.618 921.221 423.518 923.285 414.652C928.994 390.103 939.983 368.346 958.449 350.721C970.62 339.101 984.667 330.715 1000.65 325.502C1003.46 324.586 1006.26 323.637 1009.03 322.579C1010.4 322.057 1011.79 321.431 1012.92 320.517C1013.52 320.027 1013.75 318.821 1013.71 317.957C1013.7 317.536 1012.66 316.787 1012.12 316.821C1009.45 316.981 1006.68 317.008 1004.13 317.732C999.866 318.933 995.739 320.605 991.574 322.125C989.723 322.802 987.854 323.478 986.091 324.347C984.085 325.336 982.322 324.98 980.482 323.996C969.118 317.938 962.76 308.732 962.124 295.657C961.317 279.126 967.581 265.302 978.089 253.102C987.544 242.124 999.082 233.721 1011.54 226.484C1023.76 219.398 1036.82 214.208 1049.84 208.896C1056.69 206.103 1063.53 203.284 1070.35 200.411C1079.02 196.757 1087.21 192.221 1094.85 186.709C1100.91 182.338 1106.13 177.136 1110.62 171.19C1116 164.091 1120.82 156.651 1125.04 148.795C1129.13 141.179 1133.45 133.701 1138.75 126.83C1148.84 113.721 1161.57 103.652 1175.66 95.2396C1186.69 88.6552 1198.02 82.6745 1210.41 78.9603C1211.59 78.6095 1212.74 78.0824 1213.93 77.8876C1216.78 77.4225 1219.25 80.2714 1218.39 83.0786C1217.96 84.4681 1217.3 85.8635 1216.44 87.0292C1214.69 89.4062 1212.83 91.7299 1210.81 93.8985C1195.73 110.145 1183.63 128.381 1174.67 148.643C1171.59 155.621 1169.15 162.891 1166.49 170.061C1165.29 173.297 1164.33 176.62 1163.21 179.884C1155.63 201.871 1142.89 220.365 1125.35 235.544C1117.5 242.326 1109.46 248.874 1100.71 254.487C1096.1 257.44 1091.22 259.67 1085.95 261.178C1070.94 265.457 1055.76 268.498 1040.09 268.465ZM574.003 417.292C573.175 417.131 572.695 417.045 572.218 416.94C570.784 416.619 569.85 414.583 570.729 413.422C571.45 412.469 572.309 411.497 573.324 410.924C574.59 410.211 576.047 409.643 577.481 409.445C583.337 408.645 587.215 404.944 590.696 400.67C597.106 392.813 602.621 384.319 607.583 375.509C613.266 365.417 618.573 355.108 623.999 344.871C631.403 330.902 639.615 317.457 649.145 304.816C665.415 283.231 685.21 265.72 708.919 252.707C715.183 249.269 721.48 245.861 727.936 242.806C734.464 239.717 740.383 235.815 745.807 231.091C746.919 230.126 748.061 229.177 749.284 228.363C750.583 227.497 752.573 227.742 753.231 229.013C753.745 230.003 753.937 231.337 753.768 232.442C753.636 233.311 752.843 234.172 752.154 234.851C748.661 238.309 745.223 241.74 741.081 244.566C731.834 250.871 724.133 258.907 717.857 268.17C714.122 273.677 710.707 279.396 707.632 285.299C701.947 296.234 696.553 307.323 691.172 318.415C682.962 335.342 673.233 351.31 661.514 366.043C651.763 378.299 640.355 388.757 627.393 397.527C620.62 402.109 613.403 405.887 605.659 408.469C597.49 411.193 589.196 413.551 580.924 415.951C578.567 416.632 576.096 416.896 574.003 417.292ZM-22.4302 766.96H1421.01V909.4H-22.4302V766.96Z" fill="#CEFD3B"/>
</svg>
