<svg width="436" height="656" viewBox="0 0 436 656" fill="none" xmlns="http://www.w3.org/2000/svg">
<path d="M435.002 655.173H1.39479L0.9977 136.231C0.9977 136.231 23.5909 130.211 26.609 119.65C36.9572 83.4407 78.889 93.426 78.889 93.426C76.8158 84.395 85.9638 74.2179 93.9136 68.3884C100.092 63.8559 107.485 60.4474 115.554 58.4514C126.609 55.7149 139.554 55.0781 150.727 57.6979C152.244 58.0535 153.769 58.4383 155.206 58.9587C155.937 59.2269 157.978 59.8577 158.24 60.5499C151.609 42.4458 164.609 26.2141 189.816 22.0513C215.022 17.8884 217.15 0.202148 217.15 0.202148C217.15 0.202148 219.271 17.8954 244.485 22.0513C269.691 26.2131 282.7 42.4458 276.061 60.5499C276.314 59.8567 278.364 59.2198 279.094 58.9587C280.532 58.4383 282.056 58.0546 283.574 57.6969C294.747 55.0851 307.691 55.7149 318.746 58.4514C326.806 60.4474 334.208 63.8559 340.387 68.3884C348.336 74.2249 357.485 84.394 355.412 93.426C355.412 93.426 397.336 83.4337 407.691 119.65C410.709 130.211 434.581 136.471 434.581 136.471L435.002 655.173Z" fill="#CFFD3C" stroke="black" stroke-width="1.2498"/>
</svg>
