<svg width="225" height="157" viewBox="0 0 225 157" fill="none" xmlns="http://www.w3.org/2000/svg">
<g clip-path="url(#clip0_1_230)">
<path d="M133.699 0.814816C131.575 0.785053 129.939 1.11861 128.448 1.82882C124.311 3.80037 123.794 7.73732 125.289 10.6387C125.408 10.8686 125.54 11.1016 125.709 11.2956C126.658 12.3814 127.378 13.6222 128.127 14.8446C129.495 17.0747 131.03 19.1725 132.933 20.985C135.193 23.1382 137.808 24.5853 140.929 25.042C141.587 25.1385 142.192 25.3633 142.693 25.8107C142.814 25.9175 142.892 26.0878 142.951 26.2459C143.034 26.4717 142.718 26.8227 142.506 26.7457C142.303 26.6737 142.107 26.5816 141.921 26.4707C141.55 26.2465 141.138 26.0982 140.708 26.0345C136.706 25.391 133.545 23.2983 130.888 20.3282C129.521 18.7989 128.355 17.1291 127.274 15.3936C127.066 15.0621 126.813 14.746 126.676 14.3868C126.239 13.2332 125.287 13.2332 124.324 13.3225C124.059 13.3461 123.773 13.5729 123.577 13.7823C123.241 14.1374 123.093 14.6013 123.071 15.0929C123.006 16.5349 123.083 17.9543 123.634 19.3193C124.327 21.0312 125.319 22.5491 126.553 23.9141C127.928 25.4331 129.46 26.7827 131.105 27.9988C131.556 28.3334 132.04 28.6393 132.544 28.8856C134.649 29.915 136.756 30.9423 138.889 31.9142C139.632 32.2529 140.437 32.4756 141.232 32.6768C142.647 33.036 143.801 32.5464 144.68 31.4237C145.134 30.8438 145.512 30.2044 145.926 29.5927C146.725 28.3988 147.719 27.3476 148.866 26.483C150.404 25.3253 152.148 24.7208 154.041 24.5514C154.645 24.5042 155.253 24.5387 155.847 24.6541C156.597 24.7947 157.108 24.4981 157.548 23.9603C157.576 23.9274 157.605 23.8946 157.628 23.8577C158.873 21.9754 160.119 20.0942 161.358 18.2068C161.523 17.9543 161.646 17.6731 161.779 17.4001C161.87 17.2102 161.79 17.0552 161.611 16.9793C160.653 16.5688 159.651 16.6468 158.662 16.7812C157.713 16.9095 156.801 17.1999 155.909 17.5509C154.937 17.9338 153.934 18.1749 152.897 18.3381C151.563 18.557 150.198 18.4706 148.902 18.0857C147.118 17.552 145.372 16.8849 143.611 16.2681C143.45 16.2116 143.299 16.1162 143.151 16.0269C142.949 15.9047 142.846 15.6287 142.942 15.4747C142.997 15.3801 143.082 15.3064 143.183 15.2654C143.285 15.2243 143.397 15.2182 143.503 15.2479C143.882 15.3362 144.255 15.4542 144.624 15.5814C145.773 15.9786 146.924 16.3686 148.062 16.7925C150.447 17.6792 152.811 17.6289 155.189 16.7422C156.119 16.3953 157.084 16.1274 158.05 15.8873C159.336 15.5671 160.63 15.5712 161.909 15.9827C162.257 16.0956 162.35 15.9992 162.447 15.6441C162.778 14.4309 162.574 13.2271 162.379 12.0283C162.293 11.5018 161.975 11.0636 161.596 10.6982C159.854 9.03047 157.986 7.57311 155.547 7.04558C154.064 6.72537 152.591 6.35487 151.113 6.00284C149.421 5.61053 147.779 5.02511 146.22 4.25811C145.366 3.83321 144.495 3.43911 143.628 3.03987C141.197 1.91708 138.613 1.37518 135.976 1.03855C135.074 0.925658 134.166 0.859974 133.699 0.814816ZM192.988 48.2809C192.904 46.9734 192.813 45.9778 192.783 44.9823C192.759 44.2464 192.757 43.5003 192.848 42.7716C193.029 41.3245 192.676 40.0191 191.951 38.7875C191.552 38.1081 191.073 37.4841 190.478 36.9709C188.159 34.9716 186.321 32.5403 184.384 30.1972C182.889 28.3899 181.439 26.5446 179.91 24.7649C177.464 21.9118 174.678 19.4322 171.467 17.4596C170.621 16.9403 169.707 16.5246 168.808 16.0946C167.887 15.6553 166.891 15.5794 165.885 15.5496C165.536 15.5338 165.189 15.5918 164.864 15.7199C164.54 15.8479 164.246 16.0431 164.003 16.2927C163.542 16.7494 163.09 17.2307 162.721 17.7603C162.195 18.5056 161.719 19.2845 161.295 20.0921C160.641 21.3662 159.906 22.5975 159.096 23.7786C158.492 24.651 158.048 25.5747 158.196 26.6862C158.218 26.8555 158.191 27.0341 158.167 27.2055C157.789 29.9919 158.34 32.6481 159.299 35.2446C159.648 36.1888 160.184 37.0356 160.784 37.8361C162.909 40.6687 165.394 43.1524 168.163 45.3467C169.906 46.726 171.869 47.7636 173.85 48.7622C174.973 49.3298 176.09 49.9117 177.201 50.5008C177.893 50.8682 178.542 51.2983 179.096 51.8679C179.234 52.0116 179.475 52.1778 179.64 52.1501C180.139 52.0701 180.582 52.2938 181.048 52.3246C181.823 52.3769 182.612 52.3964 183.381 52.3082C184.151 52.2199 184.921 52.0618 185.657 51.7724C186.015 51.6308 186.412 51.5897 186.791 51.4974C186.959 51.4563 187.021 51.2172 186.894 51.0817C186.685 50.86 186.486 50.625 186.249 50.4382C185.634 49.9558 185.026 49.4612 184.374 49.0322C182.85 48.0315 181.299 47.0698 179.762 46.0866C177.271 44.4948 174.831 42.8332 172.591 40.8935C170.051 38.7071 167.847 36.1585 166.05 33.3295C164.922 31.554 164.088 29.6676 163.656 27.5945C163.345 26.1063 163.034 24.6212 162.949 23.0992C162.927 22.7977 162.946 22.4946 163.005 22.1981C163.035 22.0647 163.218 21.8912 163.349 21.8758C163.471 21.8615 163.704 22.0052 163.736 22.1222C163.852 22.5378 163.944 22.9689 163.971 23.3979C164.081 25.0985 164.454 26.7488 164.874 28.3888C165.332 30.1746 166.205 31.7757 167.221 33.3049C169.408 36.5942 172.142 39.3653 175.275 41.7576C177.625 43.5537 180.128 45.1209 182.63 46.6922C183.803 47.4385 184.957 48.2119 186.094 49.0116C187.027 49.6623 187.863 50.4228 188.438 51.4235C188.635 51.7663 188.912 51.9038 189.288 51.911C189.592 51.9171 189.897 51.9572 190.199 51.9469C191.386 51.9058 192.373 51.1813 192.7 50.0215C192.882 49.3626 192.927 48.6637 192.988 48.2809ZM94.9202 19.5379C94.91 19.6652 94.8587 19.8047 94.8956 19.9176C95.1686 20.7397 95.4272 21.57 95.7536 22.3726C96.1804 23.424 96.8455 24.3621 97.6964 25.1128C97.9253 25.314 98.1511 25.5182 98.3666 25.7327C100.14 27.4857 102.331 28.3139 104.75 28.6978C106.825 29.0262 108.911 29.0241 110.988 28.8825C112.937 28.7511 114.848 28.3119 116.729 27.7782C116.978 27.7084 117.213 27.5842 117.459 27.5011C118.069 27.2948 118.455 26.8853 118.768 26.3167C120.016 24.0465 120.873 21.6521 121.159 19.0709C121.211 18.6009 121.225 18.1062 121.141 17.6443C120.936 16.5277 120.966 15.4039 120.921 14.2811C120.92 14.2667 120.769 14.2236 120.717 14.2503C119.786 14.7204 118.836 15.1381 117.831 15.4326C116.235 15.8996 114.594 16.0443 112.951 16.1716C110.528 16.3625 108.101 16.5 105.68 16.7063C104.863 16.7761 104.061 16.9957 103.246 17.1178C102.824 17.1804 102.392 17.1928 101.963 17.2041C101.813 17.2082 101.722 16.89 101.84 16.7863C102.001 16.6468 102.159 16.4733 102.35 16.4066C102.88 16.2219 103.418 16.0217 103.97 15.9396C106.032 15.6406 108.108 15.4454 110.19 15.3546C112.485 15.2489 114.791 15.1329 117.039 14.5982C118.484 14.2544 119.853 13.7064 121.035 12.7714C121.687 12.2562 122.289 11.6948 122.599 10.8922C122.645 10.7711 122.692 10.6377 122.779 10.5463C123.454 9.82176 123.393 8.94324 123.249 8.08318C123.126 7.35556 122.938 6.64066 122.685 5.94742C122.298 4.88826 121.816 3.86503 121.403 2.81511C121.134 2.13158 120.721 1.83703 119.938 1.81445C117.235 1.73645 114.556 1.88834 111.897 2.36353C108.733 2.928 105.603 3.64129 102.566 4.70661C101.585 5.05145 100.626 5.46095 99.6495 5.82632C99.4535 5.90021 99.2338 5.92176 99.0234 5.94434C98.889 5.95871 98.7361 5.6539 98.8192 5.53895C98.9188 5.4045 99.0173 5.24337 99.1579 5.16947C99.8076 4.82258 100.451 4.45721 101.133 4.18011C103.024 3.40832 104.99 2.86334 106.969 2.36968C107.851 2.15108 108.741 1.97147 109.625 1.76929C109.699 1.75287 109.766 1.70566 109.835 1.67179C109.753 1.64818 109.67 1.6215 109.588 1.602C109.545 1.59365 109.502 1.59157 109.458 1.59584C106.64 1.80418 103.84 2.1244 101.138 3.00908C99.5294 3.53661 97.9376 4.10826 96.4135 4.85645C95.0044 5.55024 93.664 6.34974 92.4725 7.37605C91.6596 8.07497 90.7708 8.56145 89.6881 8.67332C89.3453 8.70924 89.0004 8.79134 88.672 8.90013C87.5893 9.25729 87.2034 10.3554 87.8469 11.3058C88.1127 11.6958 88.4503 12.0489 88.8013 12.367C89.413 12.9212 90.0545 13.4416 90.6939 13.9629C91.7068 14.7912 92.6459 15.6851 93.3828 16.7812C93.5963 17.0994 93.8744 17.3991 94.1854 17.6228C96.4843 19.268 98.8623 20.7736 101.539 21.7619C103.264 22.4003 105.051 22.7164 106.865 22.9247C107.77 23.0284 108.681 23.0879 109.591 23.1362C111.42 23.2326 113.233 23.0674 115.041 22.7954C115.595 22.7113 116.159 22.6815 116.72 22.6528C116.809 22.6487 116.96 22.7759 116.984 22.8683C117.008 22.9637 116.94 23.1238 116.859 23.1936C116.726 23.3053 116.572 23.3875 116.405 23.4348C115.904 23.5734 115.403 23.7366 114.891 23.8043C113.085 24.0434 111.28 24.3205 109.448 24.0855C109.06 24.0352 108.668 24.0178 108.277 24.0096C104.19 23.9131 100.411 22.778 96.9277 20.6463C96.4084 20.3292 95.8983 19.9977 95.3739 19.6918C95.2353 19.6118 95.0557 19.6026 94.8946 19.5615L94.9202 19.5379ZM91.2665 34.4246C90.9073 34.3199 90.7103 34.6063 90.4712 34.7694C89.2119 35.6316 87.8972 36.391 86.4305 36.8416C85.6454 37.0828 84.8398 37.2654 84.0351 37.4317C83.7006 37.5005 83.3372 37.5036 82.9975 37.4574C81.2261 37.2213 79.4465 37.2326 77.6648 37.21C76.8848 37.1998 76.1058 37.1136 75.3279 37.0458C75.1577 37.0298 74.9939 36.9727 74.8506 36.8796C74.8011 36.8413 74.7604 36.7928 74.7313 36.7374C74.7023 36.6819 74.6856 36.6208 74.6823 36.5583C74.6844 36.4506 74.7726 36.2956 74.865 36.2514C75.0538 36.1611 75.2735 36.077 75.4777 36.0831C77.517 36.1498 79.5553 36.235 81.5946 36.3161C81.8552 36.3264 82.1221 36.3182 82.3725 36.3756C83.4306 36.6117 84.4487 36.391 85.4545 36.1067C86.6676 35.7627 87.8265 35.2507 88.8978 34.5857C90.4619 33.622 91.8392 32.4336 93.1201 31.126C93.4926 30.7463 93.7903 30.3317 93.8488 29.7795C94.0766 27.5945 94.0007 25.4423 93.1806 23.3671C93.0421 23.0151 92.9271 22.9463 92.6008 23.1156C90.7483 24.0681 88.8896 25.0092 87.0587 26.0016C84.6509 27.3026 82.32 28.7412 80.0777 30.3101C79.7204 30.5541 79.3466 30.7729 78.959 30.9649C78.881 31.0059 78.6901 30.9372 78.6244 30.8582C78.5618 30.7812 78.5423 30.5954 78.5936 30.5102C78.7014 30.3276 78.8471 30.1541 79.0134 30.0217C79.7256 29.4542 80.4215 28.8599 81.1789 28.356C84.3646 26.2346 87.7196 24.4098 91.1372 22.6928C91.3702 22.5768 91.6093 22.4711 91.8413 22.3541C92.7003 21.9282 92.7003 21.9272 92.3339 21.0979C91.8741 20.0613 91.3076 19.0863 90.6035 18.1965C90.0381 17.4801 89.4715 16.7648 88.8732 16.0772C88.2974 15.4152 87.7976 14.7152 87.4815 13.8911C87.4181 13.7293 87.3441 13.572 87.2598 13.42C87.1089 13.1409 86.9211 13.0423 86.6194 13.146C85.8825 13.4016 85.1353 13.6407 84.4262 13.9609C82.3243 14.9102 80.3404 16.0751 78.4181 17.3477C76.0622 18.9079 73.8603 20.6891 71.8425 22.6671C71.4412 23.0592 71.0019 23.4163 70.5637 23.7684C70.4929 23.8248 70.2928 23.8115 70.2219 23.7499C70.146 23.6842 70.0885 23.4882 70.1327 23.4112C70.3017 23.1104 70.4982 22.8259 70.7197 22.5614C71.941 21.1389 73.3122 19.8725 74.7901 18.723C77.2915 16.7713 79.9726 15.0617 82.7974 13.6171C83.8422 13.0834 84.9116 12.6082 86.0354 12.2603C86.4357 12.1371 86.4849 11.9729 86.2335 11.6209C85.6434 10.7957 84.9465 10.1009 83.9715 9.72529C83.6205 9.58982 83.329 9.5539 82.9985 9.78482C81.1768 11.0616 79.1499 11.9698 77.1824 12.9797C74.9821 14.1169 72.8891 15.4507 70.9291 16.9649C70.2435 17.4924 69.6257 18.1144 69.0129 18.7281C67.1401 20.6086 65.5468 22.748 64.2816 25.081C63.4854 26.5328 63.0062 28.137 62.8756 29.7877C62.7853 30.9084 62.2772 31.6556 61.3412 32.1842C60.9635 32.3976 60.59 32.6203 60.2195 32.8461C59.7268 33.1458 59.3266 33.5368 59.0741 34.0623C58.6584 34.9234 59.0608 35.6521 60.005 35.7342C60.3067 35.7598 60.6126 35.7516 60.9174 35.7475C64.5362 35.6921 67.9651 36.584 71.3109 37.8587C73.2219 38.5873 75.0179 39.5552 76.8119 40.5322C77.2676 40.7806 77.7418 41.0002 78.218 41.2075C78.8389 41.4774 79.4824 41.5206 80.1259 41.2958C80.9859 40.9961 81.8583 40.7241 82.6896 40.3567C83.641 39.9359 84.5544 39.4299 85.4812 38.9527C87.5472 37.8874 89.3196 36.4239 90.9925 34.8331C91.1095 34.7233 91.166 34.5498 91.2491 34.4061L91.2676 34.4246H91.2665ZM184.105 155.716C184.626 155.716 185.148 155.723 185.668 155.715C188.288 155.674 190.566 154.762 192.584 153.098C193.919 151.987 195.303 150.937 196.732 149.952C198.931 148.45 201.418 147.723 204.064 147.553C206.019 147.428 207.966 147.588 209.915 147.749C212.167 147.937 214.428 147.944 216.684 147.845C217.513 147.809 218.314 147.618 219.051 147.203C219.353 147.034 219.68 146.912 219.993 146.761C221.137 146.208 222.316 146.104 223.536 146.465C223.659 146.502 223.79 146.529 223.917 146.532C223.995 146.534 224.132 146.49 224.14 146.449C224.16 146.337 224.165 146.183 224.102 146.104C223.941 145.899 223.756 145.716 223.549 145.557C223.062 145.197 222.574 144.828 222.049 144.53C221.681 144.319 221.263 144.128 220.812 144.356C219.864 144.281 218.912 144.232 217.965 144.127C215.982 143.908 214.003 143.652 212.021 143.426C207.963 142.962 203.941 142.328 200.053 141.021C198.442 140.479 196.927 139.733 195.454 138.893C193.025 137.509 190.433 136.54 187.744 135.805C186.417 135.443 185.065 135.458 183.737 135.66C182.366 135.869 181.031 136.269 179.784 136.916C177.967 137.858 176.467 139.132 175.493 140.962C175.104 141.689 174.726 142.422 174.36 143.161C173.803 144.29 173.232 145.412 172.724 146.562C172.388 147.314 172.111 148.09 171.894 148.884C171.446 150.564 172.038 151.969 173.226 153.134C173.553 153.456 174.024 153.658 174.459 153.84C175.702 154.355 176.978 154.765 178.3 155.042C180.217 155.443 182.134 155.8 184.105 155.716ZM48.4846 57.0077C48.5728 58.6836 48.618 59.9881 49.0029 61.2443C49.1568 61.7431 49.1045 62.1649 48.8181 62.5959C48.482 63.1023 48.1676 63.6227 47.876 64.1559C47.5578 64.7358 47.3885 65.3598 47.4429 66.0331C47.5003 66.7453 47.8052 67.1425 48.4887 67.357C49.1271 67.5582 49.7747 67.5058 50.4223 67.4165C51.3675 67.2862 52.3127 67.1528 53.2569 67.0235C54.0523 66.9157 54.7636 66.6232 55.3588 66.0762C55.9336 65.5466 56.4929 64.9975 57.082 64.4844C57.8004 63.8563 58.5168 63.2189 59.2835 62.6524C61.1226 61.2915 63.1917 60.5977 65.4937 60.6921C66.4543 60.7332 67.4047 60.6696 68.3469 60.4941C70.068 60.1738 71.5777 59.4883 72.5712 57.9539C73.8572 55.966 74.7141 53.7943 75.3227 51.5169C75.3433 51.4419 75.3002 51.3506 75.2858 51.2675C75.1955 51.3044 75.0621 51.3167 75.0231 51.3834C73.694 53.6475 71.6465 55.0946 69.3886 56.2728C67.6541 57.178 65.9402 58.1109 64.3145 59.1978C64.1321 59.3141 63.9422 59.418 63.7459 59.5088C63.5334 59.6114 63.2574 59.5498 63.1712 59.3897C63.048 59.1639 63.1239 58.9505 63.2892 58.8006C63.6104 58.5133 63.9347 58.2126 64.3022 57.9898C65.4527 57.294 66.6216 56.6248 67.7896 55.9577C68.2032 55.7207 68.6517 55.54 69.0581 55.2927C69.9099 54.7723 70.7823 54.2746 71.5777 53.6773C74.3077 51.6277 75.4993 48.792 75.6665 45.4565C75.6871 45.0552 75.5957 44.6867 75.4069 44.3316C74.9974 43.5588 74.5222 42.8281 73.8797 42.2349C73.2742 41.6766 72.6256 41.1634 71.981 40.6492C71.862 40.5538 71.6732 40.5466 71.5172 40.4973C71.4884 40.6636 71.4484 40.8298 71.435 40.9982C71.4227 41.1275 71.4453 41.2578 71.4494 41.3882C71.4987 42.6854 71.1415 43.8718 70.5021 44.9905C69.8463 46.1338 69.0006 47.1129 68.0287 47.9956C66.7109 49.1933 65.4383 50.4362 64.2785 51.795C62.4845 53.8948 61.0908 56.2328 59.9701 58.7473C59.8081 59.0982 59.6176 59.4353 59.4005 59.7551C59.3492 59.8331 59.1336 59.8896 59.0587 59.8454C58.9193 59.7564 58.8115 59.6257 58.7508 59.4718C58.7098 59.3682 58.759 59.2132 58.8021 59.0952C59.0177 58.5266 59.2127 57.9488 59.4713 57.4018C60.8825 54.4337 62.7247 51.7622 65.0627 49.4458C66.0192 48.4974 66.9952 47.5697 67.9641 46.6337C68.7512 45.8814 69.3973 44.9944 69.872 44.0145C70.5032 42.7049 70.6089 41.3553 70.1778 39.9606C70.0793 39.6444 69.9182 39.4187 69.6154 39.2934C68.6158 38.8757 67.6141 38.4632 66.6175 38.0383C66.1752 37.8494 65.8981 38.0424 65.6097 38.3636C62.8931 41.3667 60.7201 44.8198 59.188 48.5683C58.3495 50.6168 57.5357 52.6756 56.925 54.8083C56.8353 55.0962 56.7083 55.3712 56.5473 55.6262C56.498 55.7083 56.3113 55.7638 56.2055 55.7412C56.1451 55.7229 56.0893 55.6917 56.0422 55.6497C55.995 55.6077 55.9576 55.5559 55.9325 55.4979C55.8765 55.3351 55.8617 55.1609 55.8894 54.9909C55.9592 54.6081 56.0403 54.2222 56.1614 53.8517C57.3643 50.1724 58.757 46.5741 60.7367 43.2294C61.5397 41.8867 62.4416 40.6058 63.4349 39.3971C63.8465 38.8922 64.2673 38.3944 64.6819 37.8915C64.8317 37.7109 64.803 37.5774 64.5947 37.5148C63.3877 37.1495 62.151 36.9268 60.9051 36.7513C60.3755 36.6763 59.9752 36.8703 59.6499 37.2706C59.1572 37.8761 58.6441 38.4673 58.1668 39.0861C55.9038 42.0183 54.4105 45.3261 53.4766 48.8916C53.0034 50.6948 52.6145 52.5206 52.1803 54.3341C52.1003 54.6687 52.0059 55.0022 51.8868 55.3255C51.8728 55.3668 51.8505 55.4047 51.8214 55.437C51.7922 55.4693 51.7567 55.4953 51.7171 55.5133C51.6775 55.5314 51.6346 55.5412 51.591 55.5421C51.5475 55.5429 51.5043 55.5349 51.464 55.5185C51.3572 55.4774 51.2177 55.3553 51.2074 55.2588C51.1766 54.9612 51.1561 54.6502 51.2105 54.3587C51.4168 53.2503 51.6087 52.1347 51.8909 51.0458C52.3085 49.4059 52.7736 47.7785 53.2857 46.1657C54.3243 42.941 56.0475 40.0899 58.1607 37.4625C58.3208 37.2624 58.4686 37.052 58.602 36.8344C58.6205 36.8026 58.524 36.6414 58.4881 36.6445C57.9318 36.6856 57.3694 36.7051 56.8234 36.8149C56.5935 36.8611 56.3646 37.0715 56.2055 37.2665C55.7642 37.8002 55.328 38.3462 54.9432 38.9219C53.1297 41.6437 51.6508 44.5369 50.5629 47.6251C49.9286 49.4263 49.2297 51.2121 48.9485 53.1118C48.735 54.5281 48.6057 55.9547 48.4846 57.0077ZM140.026 124.598C141.307 124.473 142.796 124.709 144.226 125.293C144.515 125.41 144.756 125.357 144.909 125.114C145.888 123.557 147.289 122.355 148.42 120.925C148.842 120.39 149.442 119.994 149.979 119.554C150.35 119.244 150.823 119.083 151.306 119.102C152.323 119.137 153.149 118.683 153.89 118.05C154.186 117.797 154.431 117.486 154.711 117.215C155.678 116.28 156.766 115.78 158.138 116.25C158.548 116.39 158.979 116.463 159.395 116.582C159.622 116.648 159.762 116.904 159.695 117.082C159.661 117.186 159.597 117.277 159.511 117.344C159.425 117.411 159.321 117.451 159.212 117.459C159.087 117.472 158.955 117.441 158.829 117.414C158.448 117.33 158.068 117.238 157.69 117.149C157.111 117.009 156.536 117.046 156.076 117.424C155.273 118.081 154.514 118.792 153.746 119.49C153.723 119.509 153.756 119.642 153.799 119.672C153.904 119.746 154.025 119.802 154.145 119.848C154.752 120.08 155.364 120.297 155.969 120.538C156.191 120.626 156.361 120.626 156.554 120.457C156.879 120.172 157.22 119.9 157.575 119.657C159.113 118.607 161.032 118.911 162.007 120.466C162.597 121.406 163.239 122.374 163.218 123.573C163.213 123.853 163.344 124.071 163.563 124.24C163.633 124.292 163.705 124.344 163.762 124.408C164.457 125.183 165.294 125.632 166.359 125.708C166.771 125.737 167.165 125.999 167.567 126.153C167.905 126.281 168.111 126.157 168.28 125.811C168.492 125.378 168.411 124.975 168.255 124.555C167.636 122.87 166.786 121.317 165.66 119.916C165.606 119.848 165.554 119.776 165.491 119.719C164.253 118.576 163.674 117.099 163.348 115.496C163.286 115.2 163.233 114.9 163.182 114.601C162.892 112.936 162.028 111.625 160.714 110.593C159.622 109.732 158.422 109.019 157.144 108.471C154.543 107.355 151.87 106.479 149.079 105.988C147.452 105.701 145.808 105.507 144.159 105.558C143.214 105.587 142.273 105.819 141.334 105.989C140.909 106.066 140.496 106.206 140.08 106.33C137.837 106.999 135.596 107.679 133.321 108.229C132.816 108.357 132.323 108.526 131.845 108.733C131.214 109.002 130.808 109.18 131.717 109.814C132.099 110.08 132.39 110.484 132.695 110.848C132.944 111.147 133.156 111.478 133.376 111.801C134.261 113.095 135.517 113.649 137.05 113.654C137.616 113.656 138.18 113.639 138.743 113.67C140.361 113.761 141.764 114.406 143.004 115.418C143.264 115.631 143.478 115.925 143.638 116.222C143.729 116.388 143.689 116.639 143.667 116.848C143.65 117.025 143.267 117.157 143.13 117.045C143.029 116.968 142.938 116.877 142.859 116.776C141.957 115.534 140.637 115.01 139.211 114.727C138.625 114.61 138.004 114.649 137.399 114.656C135.414 114.681 133.727 114.09 132.558 112.383C132.338 112.06 132.129 111.727 131.876 111.43C131.597 111.102 131.277 110.807 130.965 110.507C130.912 110.456 130.793 110.423 130.727 110.447C130.669 110.467 130.611 110.574 130.603 110.648C130.466 111.838 130.693 112.985 131.049 114.108C131.244 114.726 131.509 115.324 131.748 115.928C131.907 116.332 132.075 116.73 132.234 117.133C132.365 117.464 132.376 117.791 132.289 118.148C131.687 120.671 133.1 122.622 134.854 123.62C135.914 124.224 137.106 124.559 138.326 124.594C138.809 124.612 139.287 124.598 140.026 124.598Z" fill="black"/>
<path d="M169.687 149.195C170.95 149.204 171.436 148.64 171.214 147.471C171.11 146.919 170.937 146.379 170.799 145.833C170.661 145.287 170.529 144.74 170.392 144.194C170.261 143.668 170.356 143.163 170.525 142.661C170.612 142.398 170.763 142.207 171.025 142.103C171.227 142.021 171.423 141.929 171.618 141.835C172.461 141.431 173.251 139.877 172.667 138.796C172.442 138.379 172.213 137.952 171.913 137.59C170.55 135.943 169.042 134.453 167.173 133.37C166.273 132.846 165.385 132.303 164.49 131.772C164.304 131.66 164.103 131.569 163.931 131.44C162.858 130.63 161.774 129.835 160.732 128.988C159.477 127.968 158.519 126.667 157.488 125.438C156.846 124.674 156.224 123.892 155.557 123.151C154.886 122.4 154.004 121.871 153.027 121.631C152.427 121.477 151.806 121.41 151.224 121.587C149.87 122 148.693 122.71 147.861 123.895C147.587 124.286 147.331 124.689 147.084 125.097C146.386 126.255 146.116 127.501 146.344 128.843C146.381 129.056 146.436 129.267 146.479 129.479C146.634 130.245 146.505 130.932 145.974 131.545C144.952 132.725 144.822 134.075 145.122 135.574C145.465 137.278 146.327 138.618 147.601 139.74C149.787 141.667 152.304 143.182 155.031 144.212C157.1 144.996 159.195 145.698 161.337 146.25C162.898 146.652 164.391 147.225 165.852 147.892C166.561 148.215 167.273 148.539 167.999 148.825C168.567 149.046 169.145 149.249 169.687 149.195ZM178.17 128.319C179.521 128.418 180.741 128.086 181.933 127.685C183.295 127.227 184.666 126.854 186.094 126.665C186.865 126.563 187.628 126.372 188.382 126.177C189.797 125.811 191.213 125.856 192.645 126.049C194.534 126.304 196.425 126.574 198.324 126.754C201.525 127.056 204.693 127.522 207.794 128.394C208.754 128.664 209.727 128.892 210.676 129.192C212.398 129.74 213.929 130.616 215.165 131.96C215.225 132.024 215.279 132.116 215.352 132.137C215.508 132.179 215.69 132.236 215.835 132.193C216.091 132.118 216.101 131.893 216.041 131.662C215.874 131.034 215.701 130.408 215.545 129.776C215.213 128.43 214.439 127.409 213.205 126.807C212.116 126.276 211 125.776 209.849 125.404C207.334 124.591 204.786 123.876 202.255 123.109C200.761 122.657 199.266 122.21 197.786 121.715C195.263 120.87 192.911 119.666 190.68 118.221C189.658 117.561 188.628 116.917 187.6 116.268C185.503 114.945 183.282 113.858 181.022 112.847C179.146 112.009 177.166 111.543 175.125 111.326C174.607 111.272 174.092 111.198 173.573 111.158C172.297 111.061 171.061 111.316 169.856 111.682C168.655 112.049 167.479 112.503 166.296 112.93C166.053 113.023 165.82 113.14 165.601 113.28C165.206 113.525 164.967 113.853 165.034 114.357C165.16 115.301 165.232 116.249 165.531 117.168C165.864 118.189 166.505 118.783 167.576 118.895C169.335 119.081 170.525 120.07 171.308 121.59C171.604 122.164 171.822 122.783 172.062 123.387C172.303 123.99 172.525 124.603 172.759 125.209C173.541 127.238 175.172 128.062 177.196 128.312C177.538 128.356 177.891 128.319 178.17 128.319ZM47.4111 84.9911L47.1001 86.2473C46.4946 88.6982 46.7645 90.994 48.3727 93.0179C48.9372 93.7281 49.5807 94.3829 50.2232 95.0274C51.3264 96.1348 52.4626 97.2094 53.5741 98.3075C55.1269 99.8409 56.4539 101.561 57.5952 103.412C58.2079 104.406 58.6625 105.495 59.1921 106.539C59.4672 107.078 59.732 107.625 60.0399 108.148C60.3293 108.638 60.8024 108.832 61.3669 108.815C61.9888 108.797 62.5738 108.649 63.0932 108.304C64.3504 107.468 65.7277 106.989 67.2343 106.903C67.964 106.861 68.2648 106.348 68.5275 105.787C68.5603 105.72 68.5408 105.614 68.5152 105.536C68.4855 105.454 68.439 105.38 68.3787 105.317C66.4441 103.189 64.9775 100.709 63.2266 98.441C61.5557 96.2744 59.8859 94.1099 58.1012 92.0327C56.574 90.254 55.0715 88.4539 53.5536 86.6671C52.7623 85.7342 51.8683 84.9172 50.8194 84.2758C50.2632 83.924 49.5931 83.7991 48.9474 83.9268C48.6601 83.9781 48.385 84.326 48.1213 84.1064C47.9601 83.972 48.0084 83.6128 47.8975 83.3859C47.6728 82.9262 47.0416 82.6367 46.4402 82.764C45.9308 82.8688 45.4362 83.0356 44.9674 83.2607C44.2284 83.6241 43.51 84.0336 42.8121 84.4718C41.0828 85.5546 39.3812 86.6773 37.7986 87.9756C36.0867 89.3796 34.3071 90.6984 32.6814 92.2092C30.5516 94.1929 28.5626 96.3225 26.7287 98.5826C26.4271 98.9524 26.1679 99.3548 25.9559 99.7824C25.5587 100.593 25.7168 101.166 26.4311 101.717C27.0849 102.22 27.752 102.702 28.4016 103.211C29.5029 104.071 30.6801 104.242 31.927 103.586C32.4997 103.284 33.0765 102.963 33.5794 102.559C34.8962 101.494 36.2088 100.422 37.4568 99.2784C39.6459 97.273 41.4533 94.934 43.0903 92.4709C43.9544 91.1716 44.7098 89.7984 45.4672 88.4313C45.8439 87.7529 46.1507 87.0273 46.4186 86.2966C46.6239 85.7393 46.9071 85.2928 47.4377 85.0198L47.5014 84.9459C47.4723 84.9631 47.4422 84.9781 47.4111 84.9911ZM64.805 62.7549C62.9289 62.7262 61.3525 63.4457 60.0317 64.7583C59.693 65.0939 59.3953 65.4685 59.0823 65.8288C57.9677 67.1117 56.7557 68.2868 55.3157 69.2084C54.3674 69.816 53.416 70.4226 52.4677 71.0312C52.1023 71.2652 51.9751 71.6295 52.1218 72.04C52.1793 72.2012 52.2614 72.3572 52.3517 72.5039C53.0291 73.6154 53.7075 74.7259 54.39 75.8343C55.2048 77.1723 56.2287 78.3712 57.4228 79.3854C58.6482 80.4199 59.9126 81.4103 61.1616 82.4192C61.2632 82.5013 61.3772 82.568 61.4767 82.6501C62.2116 83.2484 63.0182 83.3993 63.9142 83.0647C64.2796 82.9282 64.6593 82.8317 65.0206 82.685C68.2381 81.3836 71.5551 80.3634 74.825 79.215C76.4599 78.6403 78.0538 77.9496 79.7462 77.5442C79.8303 77.5236 79.9104 77.4877 79.9904 77.4549C80.2716 77.3389 80.3753 77.1152 80.2306 76.8288C79.6435 75.6691 79.1129 74.4714 78.4345 73.3671C76.3337 69.9597 73.5698 67.1619 70.3266 64.8322C69.2634 64.0697 68.0975 63.499 66.8577 63.0731C66.1906 62.8453 65.5183 62.718 64.805 62.7549ZM157.985 67.9543C157.922 69.3418 158.381 70.7315 159.137 72.0287C159.464 72.5922 159.859 73.1166 160.51 73.3671C160.829 73.4902 161.16 73.3106 161.154 72.9719C161.148 72.7194 161.137 72.4372 161.025 72.2207C160.011 70.2399 160.122 68.177 160.651 66.1243C161.246 63.811 162.563 61.9585 164.557 60.6151C164.88 60.3965 165.218 60.1943 165.568 60.0229C167.224 59.2049 168.835 59.3086 170.398 60.2867C171.284 60.8388 172.086 61.516 172.78 62.2972C173.675 63.303 174.56 64.318 175.426 65.3484C176.251 66.3286 177.248 67.0809 178.353 67.7059C179.317 68.2509 180.364 68.4941 181.463 68.5516C184.58 68.7107 187.272 67.6689 189.568 65.6102C192.298 63.1634 193.814 60.0783 194.335 56.4523C194.544 55.0063 194.448 53.5961 194.248 52.1757C194.17 51.6112 194.019 51.0693 193.567 50.667C193.324 50.4515 192.897 50.4894 192.785 50.7665C191.956 52.8192 190.285 53.7778 188.257 54.2796C186.927 54.6091 185.585 54.5403 184.244 54.3833C181.873 54.1062 179.51 53.7572 177.134 53.5397C174.028 53.2554 170.97 53.5335 168.055 54.7415C163.957 56.44 160.872 59.2347 158.97 63.2732C158.295 64.707 157.975 66.228 157.985 67.9532V67.9543ZM85.4997 111.029C85.4863 110.958 85.4361 110.615 85.354 110.282C85.1251 109.349 84.7525 108.47 84.2897 107.631C84.1449 107.368 84.1665 107.146 84.3677 106.924C86.2448 104.853 87.6827 102.464 89.2365 100.163C89.8379 99.2723 90.229 98.2388 90.7021 97.2628C90.8724 96.9118 91.0079 96.5443 91.1496 96.18C91.5806 95.0716 92.3688 94.2988 93.4116 93.764C93.7205 93.605 94.0345 93.4551 94.3352 93.2817C94.9336 92.9379 95.0106 92.6762 94.6267 92.1445C94.3219 91.7237 93.9832 91.3255 93.6312 90.9437C92.8625 90.1175 92.0271 89.3488 91.3138 88.4795C90.5338 87.5312 89.5598 86.7984 88.7069 85.9363C88.5222 85.7496 88.2184 85.7372 87.9885 85.922C87.617 86.2196 87.2352 86.5183 86.9252 86.8764C86.0046 87.9407 84.9301 88.7874 83.7067 89.4874C83.0755 89.8487 82.5408 90.3864 81.9897 90.875C80.2347 92.4315 78.4889 93.9984 76.7524 95.5755C75.6922 96.5382 74.6556 97.5306 73.6119 98.5138C73.4502 98.659 73.3015 98.818 73.1675 98.989C72.7857 99.5083 72.6482 100.019 72.9827 100.668C74.2985 103.222 75.6871 105.725 77.6597 107.851C78.5166 108.774 79.3572 109.713 80.2429 110.607C80.6986 111.067 81.2199 111.469 81.7423 111.856C82.3397 112.298 83.0273 112.57 83.7354 112.799C84.8151 113.148 85.3899 112.647 85.5007 111.565C85.5079 111.479 85.5007 111.392 85.5007 111.029H85.4997ZM80.2686 78.1569C79.8909 78.239 79.4998 78.2852 79.1355 78.4083C78.4787 78.629 77.8321 78.8814 77.1906 79.1421C74.0522 80.4148 71.0122 81.8968 68.0195 83.4763C66.2552 84.4071 64.4787 85.3134 62.7073 86.2309C62.5913 86.2904 62.4671 86.3345 62.3563 86.4013C61.7148 86.7789 61.5557 87.5815 61.9991 88.1891C62.0504 88.2579 62.1069 88.3256 62.1726 88.3841C63.125 89.2308 63.7818 90.3084 64.5105 91.3348C65.819 93.1739 67.4745 94.5954 69.5456 95.5375C70.4898 95.9665 71.3724 96.0024 72.2674 95.4523C72.7097 95.1793 73.1788 94.9474 73.6149 94.6652C75.6553 93.3443 77.6792 91.9988 79.7256 90.6882C81.0746 89.8198 82.4427 88.9815 83.8288 88.1737C84.5206 87.7724 85.1066 87.2931 85.5592 86.6342C86.0477 85.9209 86.4798 85.1604 87.1962 84.6278C87.383 84.4892 87.4199 84.2532 87.3542 84.0325C87.2748 83.7442 87.1697 83.4636 87.0402 83.194C86.9333 83.004 86.7944 82.8339 86.6297 82.6911C85.3201 81.4883 84.0947 80.191 82.6527 79.138C82.3368 78.9082 82.0048 78.7013 81.6592 78.5192C81.232 78.2872 80.7547 78.1628 80.2686 78.1569Z" fill="black"/>
<path d="M97.3146 115.661C97.2387 115.261 97.173 114.656 97.0026 114.08C96.8076 113.419 96.8343 112.801 97.1083 112.182C97.3362 111.667 97.5394 111.139 97.8001 110.639C99.8301 106.737 101.245 102.594 102.585 98.4225C102.626 98.2994 102.675 98.1772 102.703 98.052C102.782 97.6856 102.705 97.3572 102.405 97.1129C101.293 96.2098 100.158 95.3374 98.812 94.7935C98.2476 94.5656 97.6708 94.3994 97.0478 94.3901C96.7081 94.384 96.3704 94.2834 96.0307 94.2239C95.7331 94.1715 95.4375 94.0884 95.1378 94.072C94.7273 94.0473 94.3712 94.191 94.132 94.5523C94.0371 94.6977 93.9447 94.8449 93.8549 94.9936C91.6001 98.6473 89.3484 102.305 87.0874 105.956C86.7005 106.58 86.3279 107.226 85.8517 107.78C85.4412 108.257 85.4473 108.711 85.6465 109.218C85.7563 109.499 85.9205 109.759 86.0796 110.018C87.9803 113.107 90.5646 115.515 93.5532 117.521C94.0954 117.884 94.6976 118.148 95.3318 118.301C96.2811 118.532 96.9647 118.119 97.171 117.163C97.2613 116.742 97.2572 116.302 97.3146 115.661ZM103.005 126.526C103.015 125.818 102.827 125.152 102.557 124.507C102.475 124.308 102.389 124.085 102.235 123.95C101.46 123.264 100.823 122.426 99.8804 121.924C98.421 121.148 96.9575 120.38 95.3605 119.934C92.7516 119.205 90.3316 118.031 87.9156 116.847C85.5336 115.68 83.2582 114.33 81.0568 112.847C79.9442 112.097 78.7568 111.452 77.5796 110.804C76.3621 110.135 75.128 109.496 73.8787 108.889C73.2978 108.606 72.6769 108.398 72.0591 108.203C71.4268 108.003 70.7864 108.046 70.1286 108.162C69.5323 108.267 69.0807 108.539 68.6917 108.974C67.8563 109.906 67.6408 111.053 67.6069 112.239C67.5905 112.77 67.8594 113.263 68.2894 113.597C68.8005 113.996 69.3198 114.403 69.8905 114.705C72.3454 116.012 74.865 117.167 77.5632 117.907C79.1109 118.332 80.638 118.832 82.1672 119.321C85.161 120.28 87.9249 121.742 90.6703 123.238C91.9675 123.943 93.2607 124.658 94.5354 125.401C95.3215 125.86 96.0748 126.376 96.8353 126.879C97.5599 127.358 98.2599 127.875 98.9937 128.338C99.357 128.566 99.7583 128.756 100.168 128.884C101.615 129.334 102.902 128.431 103.005 126.916C103.012 126.788 103.005 126.657 103.005 126.526ZM119.603 116.727C119.597 117.734 119.803 118.731 120.207 119.653C120.518 120.359 120.99 120.898 121.694 121.221C122.799 121.729 123.915 122.177 125.145 122.337C127.387 122.628 129.591 123.093 131.684 123.993C132.002 124.13 132.336 124.237 132.672 124.319C132.828 124.356 133.013 124.317 133.176 124.277C133.358 124.232 133.515 123.897 133.432 123.744C133.33 123.553 133.215 123.37 133.087 123.197C131.967 121.71 131.261 120.059 131.097 118.192C131.004 117.139 130.68 116.158 130.209 115.217C129.511 113.825 129.265 112.346 129.317 110.797C129.345 109.98 129.634 109.271 130.077 108.616C130.544 107.924 131.258 107.633 132.053 107.481C132.905 107.319 133.746 107.092 134.602 106.958C135.191 106.867 135.653 106.568 136.115 106.246C136.401 106.047 136.357 105.678 136.032 105.505C135.879 105.426 135.719 105.36 135.554 105.309C134.394 104.932 133.208 104.663 131.996 104.561C130.611 104.446 129.223 104.399 127.838 104.308C127.319 104.275 126.803 104.21 126.286 104.148C125.376 104.041 124.479 104.027 123.571 104.248C122.553 104.494 121.98 105.081 121.863 106.114C121.8 106.675 121.682 107.242 121.715 107.798C121.792 109.097 121.419 110.281 120.966 111.465C120.596 112.436 120.233 113.416 119.964 114.419C119.762 115.168 119.717 115.956 119.603 116.727ZM191.853 126.713C190.319 126.729 188.827 126.996 187.346 127.34C185.152 127.851 182.961 128.38 180.761 128.872C180.003 129.043 179.228 129.169 178.454 129.247C176.981 129.396 175.613 129.057 174.359 128.256C173.848 127.93 173.337 127.595 172.792 127.333C172.327 127.11 171.82 126.967 171.32 126.833C171.125 126.781 170.89 126.822 170.685 126.866C170.376 126.931 170.205 127.334 170.371 127.589C170.488 127.769 170.62 127.949 170.778 128.091C171.487 128.73 172.191 129.377 172.929 129.981C173.91 130.781 175.09 131.056 176.319 131.154C177.4 131.24 178.482 131.315 179.564 131.381C181.079 131.471 182.585 131.649 184.09 131.862C185.162 132.015 186.245 132.099 187.326 132.176C189.057 132.299 190.791 132.375 192.522 132.5C194.208 132.621 195.891 132.801 197.576 132.911C199.827 133.058 202.08 133.166 204.332 133.282C206.021 133.37 207.714 133.402 209.4 133.538C210.7 133.642 211.966 133.935 213.129 134.583C213.696 134.899 214.289 135.168 214.88 135.435C214.971 135.476 215.162 135.436 215.229 135.363C215.332 135.246 215.436 135.059 215.416 134.921C215.384 134.719 215.268 134.516 215.144 134.346C214.66 133.678 214.183 133.002 213.661 132.366C212.625 131.105 211.39 130.151 209.771 129.695C206.681 128.825 203.575 128.024 200.394 127.583C198.462 127.315 196.514 127.163 194.574 126.966C193.666 126.875 192.759 126.796 191.853 126.713ZM51.9114 120.717C51.9658 121.366 52.1372 121.945 52.4657 122.467C53.0876 123.456 53.7229 124.439 54.3551 125.422C54.4259 125.532 54.507 125.635 54.5922 125.732C55.0345 126.23 55.5066 126.359 56.1029 126.057C56.5651 125.82 57.0033 125.539 57.4115 125.218C58.095 124.684 58.7334 124.093 59.4107 123.553C60.4268 122.742 61.4623 121.954 62.4897 121.155C63.0357 120.731 63.5848 120.307 64.1297 119.877C65.3151 118.944 65.9453 117.708 66.1793 116.228C66.3681 115.031 66.6124 113.843 66.8618 112.658C67.0876 111.584 67.0907 110.505 66.987 109.423C66.9459 108.996 66.7222 108.772 66.2747 108.63C65.7616 108.467 65.4126 108.542 64.9662 108.832C62.9002 110.182 60.7993 111.478 58.7159 112.801C58.346 113.028 57.9927 113.281 57.6588 113.558C56.3736 114.657 55.0999 115.77 53.8378 116.896C52.8392 117.789 52.1649 118.879 51.9833 120.234C51.9597 120.405 51.932 120.576 51.9114 120.717ZM105.395 125.434C105.548 126.461 105.697 127.45 106.105 128.369C106.245 128.682 106.41 129.002 106.633 129.257C107.144 129.844 107.662 130.434 108.243 130.952C109.245 131.845 110.299 132.681 111.326 133.545C113.218 135.133 115.107 136.728 117.001 138.313C117.5 138.73 118.002 139.148 118.536 139.516C118.886 139.757 119.288 139.934 119.684 140.099C120.063 140.256 120.336 140.159 120.582 139.829C120.711 139.656 120.831 139.472 120.923 139.277C121.202 138.686 121.649 138.328 122.29 138.186C122.583 138.122 122.874 138.017 123.146 137.887C123.469 137.732 123.619 137.362 123.531 137.006C123.341 136.24 123.052 135.506 122.508 134.928C121.949 134.324 121.352 133.759 120.719 133.234C120.115 132.743 119.45 132.326 118.795 131.901C118.093 131.444 117.529 130.865 117.046 130.183C116.152 128.904 115.234 127.641 114.293 126.397C113.078 124.805 111.704 123.364 110.077 122.179C109.764 121.951 109.493 121.663 109.199 121.407C108.979 121.213 108.735 121.189 108.487 121.352C107.943 121.709 107.382 122.041 106.865 122.432C105.868 123.192 105.392 124.222 105.395 125.434ZM195.501 156.562C195.948 156.486 196.461 156.415 196.968 156.31C199.174 155.861 201.374 155.386 203.614 155.113C205.29 154.909 206.948 154.567 208.618 154.304C209.601 154.15 210.587 153.988 211.578 153.907C214.414 153.675 217.115 152.917 219.748 151.886C220.635 151.54 221.498 151.133 222.38 150.778C223.193 150.452 223.32 149.69 223.473 148.996C223.583 148.5 223.238 148.098 222.842 147.791C222.777 147.734 222.696 147.699 222.61 147.692C222.524 147.685 222.438 147.705 222.364 147.75C222.136 147.877 221.911 148.008 221.678 148.122C219.645 149.125 217.496 149.496 215.241 149.32C214.464 149.253 213.685 149.211 212.906 149.193C211.56 149.172 210.216 149.201 208.87 149.18C208.267 149.171 207.665 149.091 207.062 149.046C206.89 149.033 206.718 149.017 206.547 149.023C205.421 149.065 204.295 149.145 203.168 149.152C200.589 149.169 198.333 150.038 196.342 151.645C195.399 152.409 194.457 153.176 193.529 153.957C193.263 154.181 193.024 154.433 192.816 154.711C192.54 155.081 192.626 155.57 192.971 155.884C193.339 156.215 193.782 156.389 194.259 156.462C194.645 156.519 195.038 156.526 195.501 156.562ZM99.0471 113.223C99.0019 113.829 99.1641 114.364 99.4822 114.847C100.37 116.19 101.341 117.473 102.514 118.578C102.947 118.987 103.499 119.278 104.025 119.578C104.336 119.756 104.781 119.491 104.801 119.137C104.816 118.792 104.798 118.446 104.748 118.104C104.668 117.546 104.549 116.995 104.452 116.441C104.18 114.895 104.322 113.393 105.124 112.029C106.182 110.228 106.998 108.312 107.884 106.431C108.622 104.865 109.227 103.234 109.888 101.631C109.937 101.512 109.975 101.384 110.008 101.261C110.217 100.444 110.13 99.7465 109.395 99.1717C108.473 98.4513 107.615 97.6487 106.716 96.8984C106.48 96.7077 106.22 96.5489 105.943 96.4263C105.186 96.0825 104.613 96.2385 104.128 96.9159C103.798 97.3798 103.604 97.9053 103.469 98.4615C103.152 99.7662 102.82 101.067 102.473 102.365C102.361 102.782 102.193 103.186 102.048 103.593C101.557 104.983 101.06 106.37 100.578 107.762C100.184 108.909 99.7975 110.059 99.4196 111.211C99.2 111.868 98.9886 112.532 99.0471 113.223ZM152.857 151.822C153.171 151.743 153.519 151.697 153.833 151.568C154.45 151.318 154.629 150.587 154.212 150.059C154.049 149.856 153.853 149.682 153.633 149.544C153.156 149.245 152.667 148.964 152.168 148.702C148.402 146.72 144.474 145.115 140.459 143.713C139.355 143.328 138.258 142.918 137.162 142.51C135.331 141.827 133.434 141.372 131.544 140.898C130.839 140.72 130.106 140.652 129.385 140.54C128.18 140.353 127.001 140.083 125.95 139.429C125.114 138.911 124.233 138.598 123.238 138.728C122.942 138.767 122.639 138.831 122.361 138.94C121.573 139.248 121.379 139.592 121.435 140.441C121.454 140.714 121.535 140.953 121.74 141.134C122.131 141.476 122.512 141.835 122.926 142.146C125.294 143.923 127.918 145.091 130.882 145.428C131.054 145.447 131.227 145.454 131.402 145.461C135.8 145.631 139.946 146.818 143.902 148.678C146.42 149.861 148.968 150.932 151.676 151.6C152.05 151.69 152.436 151.743 152.857 151.822ZM110.337 120.975C110.633 121.414 110.909 121.907 111.27 122.327C111.607 122.717 112.01 123.064 112.427 123.372C113.734 124.335 114.785 125.542 115.804 126.785C116.436 127.557 117.066 128.33 117.724 129.079C118.658 130.14 119.807 130.906 121.112 131.435C121.955 131.776 122.8 132.115 123.663 132.399C125.809 133.105 127.932 133.852 129.78 135.207C130.051 135.405 130.328 135.32 130.38 135.019C130.515 134.255 130.903 133.662 131.468 133.147C131.685 132.951 131.831 132.667 131.977 132.405C132.179 132.045 132.173 131.677 132.018 131.282C131.709 130.49 131.257 129.855 130.503 129.405C128.234 128.047 125.913 126.777 123.547 125.596C121.88 124.765 120.198 123.958 118.529 123.133C116.54 122.151 114.486 121.341 112.315 120.873C111.732 120.747 111.118 120.773 110.517 120.742C110.475 120.74 110.428 120.852 110.337 120.975ZM49.6166 73.9223C49.7603 76.2028 50.3094 78.1466 51.308 79.9653C52.2111 81.6094 53.3093 83.1181 54.4783 84.5744C55.5908 85.9631 56.8018 87.2747 57.8938 88.6797C61.1473 92.8599 64.3771 97.0596 67.5884 101.273C68.7759 102.831 70.0126 104.336 71.4268 105.693C71.7388 105.994 72.0242 106.324 72.3362 106.626C72.4573 106.741 72.6102 106.83 72.7631 106.904C72.9889 107.013 73.3399 106.761 73.3009 106.515C73.2634 106.303 73.2074 106.095 73.1336 105.893C72.8462 105.075 72.5353 104.264 72.2592 103.443C71.7563 101.952 70.9558 100.609 70.2168 99.2343C69.9284 98.7007 69.6072 98.1834 69.326 97.6446C69.0277 97.0625 68.598 96.5579 68.0708 96.1708C67.4766 95.7326 66.9008 95.2687 66.2829 94.8653C65.3326 94.2444 64.4818 93.5106 63.6648 92.7275C61.7589 90.9007 60.7275 88.6705 60.5756 86.0462C60.5387 85.4345 60.3334 84.9511 59.8849 84.5642C59.459 84.1947 59.03 83.8252 58.5743 83.4937C57.548 82.7455 56.6736 81.8516 55.8802 80.8633C54.1693 78.7286 52.4718 76.5836 50.9919 74.2764C50.8071 73.987 50.5629 73.7324 50.3248 73.482C50.1298 73.2768 49.7859 73.3681 49.6915 73.6401C49.6566 73.7312 49.6315 73.8259 49.6166 73.9223Z" fill="black"/>
<path d="M112.007 114.172C112.348 115.748 112.733 117.258 113.27 118.724C113.354 118.954 113.561 119.157 113.753 119.328C115.605 120.983 117.781 122.236 120.142 123.006C120.305 123.063 120.481 123.077 120.651 123.046C120.804 123.012 120.999 122.91 121.055 122.786C121.105 122.675 121.035 122.446 120.937 122.348C120.724 122.137 120.45 121.986 120.219 121.79C119.504 121.18 119.028 120.427 118.857 119.489C118.786 119.106 118.688 118.729 118.563 118.36C117.919 116.415 117.937 114.503 118.936 112.684C119.753 111.195 120.015 109.583 120.183 107.934C120.227 107.503 120.289 107.073 120.37 106.649C120.478 106.047 120.763 105.491 121.189 105.053C121.707 104.515 121.669 104.274 121.111 103.776C120.981 103.66 120.851 103.541 120.705 103.449C119.711 102.829 118.723 102.197 117.712 101.606C117.188 101.301 116.791 101.386 116.491 101.908C116.126 102.544 115.807 103.215 115.557 103.905C115.276 104.681 115.05 105.475 114.883 106.283C114.512 108.088 113.781 109.75 112.97 111.388C112.739 111.855 112.507 112.325 112.338 112.816C112.181 113.261 112.111 113.736 112.007 114.172ZM23.2588 94.9146C25.2744 94.8767 27.1331 94.3912 28.7506 93.1514C29.4758 92.5989 30.1913 92.0336 30.8966 91.4559C33.0416 89.6876 35.163 87.8905 37.3193 86.1376C39.0117 84.7623 40.8508 83.6118 42.8799 82.7887C43.3992 82.5773 43.9462 82.4326 44.4727 82.2376C44.7775 82.1247 44.8083 81.6998 44.5456 81.4935C44.2603 81.2698 43.9431 81.1302 43.5798 81.2184C42.8224 81.4032 42.0568 81.5664 41.3168 81.8076C37.6847 82.9981 34.1675 84.4821 30.6647 86.0042C27.9593 87.1803 25.2262 88.2918 22.5137 89.4526C21.8373 89.743 21.163 90.0612 20.5462 90.4553C19.4532 91.1563 19.2264 91.771 19.5692 92.9985C19.8319 93.9417 20.3799 94.6221 21.4514 94.7145C22.0549 94.7689 22.6563 94.8479 23.2588 94.9146ZM135.693 139.281C136.776 139.31 137.852 139.298 138.916 139.005C140.196 138.652 141.163 137.88 141.939 136.864C142.882 135.63 142.808 133.653 141.812 132.359C140.442 130.58 138.757 129.322 136.45 129.001C135.463 128.863 134.497 128.618 133.492 128.777C133.364 128.797 133.23 128.798 133.108 128.836C132.505 129.033 132.246 129.413 132.559 130.022C132.638 130.177 132.708 130.335 132.789 130.49C133.221 131.315 133.205 132.127 132.835 132.987C132.153 134.575 132.174 134.585 130.827 136.126C130.349 136.672 130.373 137.639 130.915 138.117C131.718 138.827 132.655 139.251 133.742 139.279C134.391 139.294 135.042 139.281 135.693 139.281Z" fill="black"/>
<path d="M111.383 118.522C111.255 117.833 111.095 117.114 110.991 116.386C110.876 115.616 110.798 114.841 110.759 114.064C110.714 112.948 111.068 111.934 111.678 111C112.152 110.275 112.651 109.556 113.033 108.784C113.627 107.581 114.211 106.363 114.649 105.099C115.035 103.991 115.007 102.792 114.995 101.619C114.993 101.389 114.847 101.158 114.621 101.149C114.06 101.129 113.664 100.781 113.213 100.534C112.986 100.408 112.758 100.275 112.513 100.194C111.753 99.9374 111.278 100.117 110.865 100.796C110.004 102.216 109.473 103.774 108.962 105.341C108.64 106.328 108.261 107.297 107.936 108.283C107.542 109.476 107.182 110.679 106.801 111.874C106.565 112.616 106.308 113.354 106.075 114.097C105.746 115.147 106.003 116.072 106.745 116.855C107.485 117.647 108.251 118.414 109.04 119.156C109.382 119.472 109.814 119.714 110.238 119.919C110.737 120.16 111.188 119.896 111.304 119.336C111.357 119.084 111.356 118.822 111.383 118.522ZM45.3276 138.671C45.2671 138.367 45.2086 137.979 45.1111 137.602C44.6749 135.914 44.0694 134.299 43.1713 132.793C41.1735 129.435 39.3724 125.964 37.777 122.397C37.4045 121.568 36.9437 120.778 36.5229 119.969C36.0036 118.972 35.0224 118.677 34.0556 118.464C33.2807 118.294 32.5202 119.221 32.6537 120.107C32.7245 120.57 32.8836 121.036 33.0847 121.463C33.4347 122.208 33.8052 122.949 34.2434 123.645C35.7254 126.005 36.9395 128.5 38.0521 131.048C38.8352 132.843 39.7496 134.558 40.9227 136.141C41.8669 137.414 43.081 138.394 44.2326 139.446C44.4214 139.619 44.6616 139.753 44.9458 139.647C45.186 139.556 45.3358 139.253 45.3276 138.883V138.671ZM9.64879 114.361C9.66008 115.039 10.1137 115.369 10.632 115.191C11.218 114.991 11.7014 114.624 12.1509 114.209C13.402 113.055 14.5125 111.78 15.4423 110.354C17.1624 107.715 18.3499 104.834 19.2572 101.831C19.3824 101.417 19.4214 100.978 19.5312 100.558C19.7057 99.8912 19.8268 99.1912 20.1141 98.5724C20.5134 97.7144 20.4272 96.9867 19.8452 96.2765C19.7354 96.1431 19.6533 95.9789 19.525 95.868C19.2684 95.6443 19.0016 95.2953 18.7173 95.2738C18.2934 95.243 17.9784 95.6535 17.6797 95.946C17.5011 96.1205 17.4047 96.3832 17.2856 96.6152C15.6004 99.9004 14.0712 103.251 12.9207 106.767C12.6662 107.546 12.2772 108.282 11.9539 109.039C11.7866 109.434 11.6357 109.837 11.4582 110.228C11.3561 110.464 11.2331 110.691 11.0908 110.906C10.4719 111.812 10.1004 112.83 9.73603 113.852C9.66624 114.05 9.66418 114.274 9.64879 114.361ZM50.2611 124.348C50.3771 126.984 50.7794 129.416 51.7062 131.734C52.0592 132.615 52.5026 133.47 52.9932 134.283C53.5788 135.247 54.0618 136.27 54.4341 137.334C55.442 140.245 56.2179 143.223 57.0543 146.185C57.1354 146.472 57.2339 146.76 57.3786 147.019C57.5336 147.295 57.9872 147.288 58.1453 147.011C58.2684 146.793 58.3659 146.542 58.4039 146.294C58.5558 145.298 58.5117 144.293 58.3567 143.309C57.8877 140.356 57.4084 137.404 56.8573 134.466C56.497 132.544 55.9295 130.677 54.8518 129.007C54.4797 128.418 54.2226 127.765 54.0944 127.08C53.8183 125.694 53.1174 124.49 52.4421 123.281C52.2573 122.949 51.9628 122.666 51.6733 122.41C51.1397 121.934 50.3514 122.276 50.3289 122.938C50.3124 123.457 50.2806 123.978 50.2611 124.348ZM31.9003 117.931C32.198 117.882 32.5007 117.854 32.7932 117.782C33.4203 117.625 34.0443 117.448 34.6663 117.273C34.8325 117.226 34.9957 117.164 35.1538 117.093C35.5899 116.893 35.7901 116.492 35.6546 116.024C35.5747 115.731 35.456 115.451 35.3015 115.189C33.9571 113.007 32.9431 110.659 31.8162 108.366C30.6051 105.903 28.7362 103.986 26.5697 102.34C26.0411 101.938 25.4797 101.827 24.8742 102.162C24.6227 102.302 24.4893 102.53 24.5355 102.808C24.5848 103.104 24.6812 103.395 24.7798 103.68C25.2898 105.159 26.0103 106.544 26.7482 107.918C27.0767 108.529 27.4184 109.132 27.7397 109.746C28.5309 111.257 29.0667 112.844 29.2155 114.556C29.2566 115.027 29.3756 115.496 29.5008 115.954C29.5798 116.242 29.7112 116.525 29.8631 116.784C30.3167 117.551 30.952 118.013 31.9003 117.931ZM162.135 82.1698C162.155 81.8434 162.18 81.6279 162.181 81.4113C162.182 81.1589 162.014 81.0193 161.795 80.9515C161.553 80.8766 161.237 81.0521 161.198 81.3169C160.987 82.7496 160.34 84.0408 159.903 85.3996C159.452 86.8036 159.065 88.2271 159.007 89.7163C158.973 90.5989 159.079 91.4497 159.561 92.2184C159.653 92.3652 159.733 92.5212 159.841 92.6556C161.082 94.1982 162.469 94.2393 163.886 93.0087C164.798 92.2164 165.116 91.1511 164.94 89.9462C164.824 89.1722 164.588 88.4213 164.239 87.7211C163.777 86.7892 163.299 85.8635 162.825 84.9357C162.365 84.0325 162.091 83.0853 162.135 82.1698ZM159.126 120.138C159.015 120.154 158.795 120.164 158.587 120.217C158.247 120.299 157.946 120.496 157.736 120.776C157.525 121.055 157.418 121.398 157.433 121.748C157.443 122.048 157.478 122.361 157.577 122.643C158.162 124.307 159.022 125.807 160.406 126.938C161.144 127.54 161.93 128.085 162.718 128.626C163.367 129.072 164.108 129.331 164.874 129.509C165.039 129.548 165.218 129.554 165.388 129.541C165.748 129.513 165.986 129.036 165.765 128.748C165.556 128.477 165.297 128.242 165.044 128.009C164.567 127.568 164.065 127.151 163.598 126.7C163.086 126.203 162.762 125.613 162.693 124.876C162.629 124.187 162.501 123.504 162.383 122.82C162.089 121.106 160.937 120.132 159.126 120.138ZM2.77042 120.222C2.94284 120.18 3.32258 120.098 3.69616 119.999C5.718 119.467 7.2195 118.222 8.40592 116.55C8.52908 116.376 8.62453 116.177 8.70868 115.978C8.88316 115.572 8.58142 115.332 8.35666 115.083C8.18629 114.894 7.92355 114.898 7.64439 115.072C7.42579 115.21 7.22053 115.371 7.00397 115.514C5.81037 116.296 4.61368 117.074 3.41905 117.856C3.05676 118.092 2.68934 118.322 2.34347 118.58C2.13936 118.74 1.95503 118.923 1.79439 119.126C1.62916 119.332 1.51524 119.569 1.66097 119.842C1.79645 120.094 2.0171 120.207 2.29524 120.22C2.38247 120.226 2.46971 120.222 2.77042 120.222ZM91.5293 34.17C91.3466 34.1556 91.2317 34.2121 91.2676 34.4245L91.2471 34.405C91.4246 34.4071 91.5139 34.3229 91.5026 34.1423L91.5293 34.17ZM91.5026 34.1423C91.672 34.1361 91.7561 34.0489 91.753 33.8785L91.7859 33.9114C91.6217 33.9196 91.5242 33.9935 91.5313 34.169L91.5026 34.1423Z" fill="black"/>
<path d="M91.7541 33.8785L92.0076 33.6219L92.0332 33.6445L91.7848 33.9113L91.7541 33.8785ZM92.0086 33.6219L92.0815 33.585L92.0332 33.6435L92.0086 33.6219ZM94.8977 19.5614L94.7878 19.4382C94.795 19.468 94.793 19.5121 94.8104 19.5224C94.8412 19.5388 94.8823 19.5347 94.9192 19.5388L94.8977 19.5614Z" fill="black"/>
</g>
<defs>
<clipPath id="clip0_1_230">
<rect width="225" height="156" fill="white" transform="translate(0 0.6875)"/>
</clipPath>
</defs>
</svg>
